<svg xmlns="http://www.w3.org/2000/svg" width="846" height="493.028" viewBox="0 0 846 493.028">
  <g id="_404" data-name="404" transform="translate(-265 -100.972)">
    <text id="_-_Oops_Sorry_page_not_found_-_" data-name="- Oops! Sorry, page not found - " transform="translate(265 522)" fill="#9fd2e3" font-size="40" font-family="HelveticaNeue, Helvetica Neue"><tspan x="143.3" y="38">- Oops! Sorry, page not found - </tspan></text>
    <g id="_404-2" data-name="404">
      <path id="Path_198" data-name="Path 198" d="M376.5,160.2H328.1q-20.1-42.6-37.5-55.4c-11.9-8.7-24.1-10.2-36.5-4.4s-18.9,16.4-19.5,32c-.3,7.6,1.1,16.9,4.3,27.9h-45q-3.3-21,.3-38.1,8.25-38.1,45.8-55.6,76.8-35.85,128.7,75.6C371.6,148.3,374.2,154.4,376.5,160.2Z" transform="translate(380.176 330)" fill="#9bd2e6" opacity="0.2"/>
      <path id="Path_199" data-name="Path 199" d="M589.6,153.8,559,160.2H413.1l-.3-1.4L451.3,0l38.3,9.9-33,135.5,52.2-10.9-4.1-19.8,5.1-51.8,25.6-5.4,14.4,68.4,32.5-6.8Z" transform="translate(365.199 330)" fill="#9dd2e4"/>
      <path id="Path_200" data-name="Path 200" d="M154.2,92.4l-11.4,67.8H0l3.1-18.3L96.9,8.1l32,23.2L48.7,145.4l52.7,8.9,3.3-19.9,23.8-46.3Z" transform="translate(395 330)" fill="#9dd2e4"/>
    </g>
    <g id="_404_line" data-name="404 line">
      <line id="Line_86" data-name="Line 86" x2="640" transform="translate(354.5 490.5)" fill="none" stroke="#9fd2e3" stroke-width="3.6"/>
      <line id="Line_87" data-name="Line 87" x2="40" transform="translate(284.5 490.5)" fill="none" stroke="#9fd2e3" stroke-width="3.6"/>
      <line id="Line_88" data-name="Line 88" x2="40" transform="translate(1024.5 490.5)" fill="none" stroke="#9fd2e3" stroke-width="3.6"/>
      <line id="Line_91" data-name="Line 91" x2="300" transform="translate(684.5 511.21)" fill="none" stroke="#9fd2e3" stroke-width="3.6"/>
      <line id="Line_92" data-name="Line 92" x2="300" transform="translate(364.5 511.21)" fill="none" stroke="#9fd2e3" stroke-width="3.6"/>
    </g>
    <g id="_404_cloud" data-name="404 cloud">
      <path id="Path_209" data-name="Path 209" d="M8.4,42.7H91.2A14.327,14.327,0,0,0,75.4,21C72.2,7.7,59.7-.6,47.8,1.3,38.3,2.8,30.3,10.6,28.1,21a20.461,20.461,0,0,0-11.8-3.9C14.9,17,6,17,2.5,23-.7,28.3,1.3,36.9,8.4,42.7Z" transform="translate(698.98 100.97)" fill="#fff" stroke="#9bd2e6" stroke-miterlimit="10" stroke-width="2"/>
      <path id="Path_210" data-name="Path 210" d="M8.4,42.7H91.2A14.327,14.327,0,0,0,75.4,21C72.2,7.7,59.7-.6,47.8,1.3,38.3,2.8,30.3,10.6,28.1,21a20.461,20.461,0,0,0-11.8-3.9C14.9,17,6,17,2.5,23-.7,28.3,1.3,36.9,8.4,42.7Z" transform="translate(455.98 179.97)" fill="#fff" stroke="#9bd2e6" stroke-miterlimit="10" stroke-width="2"/>
      <path id="Path_216" data-name="Path 216" d="M15.466,20.473C15.573,25.658,12.259,28.5,8.3,28.5S1.1,25.61,1,20.473,6.664,6.3,8.3,3.025C10.095,6.4,15.36,15.289,15.466,20.473Z" transform="translate(490.562 280)" fill="#fff" stroke="#9bd2e6" stroke-miterlimit="10" stroke-width="2"/>
      <path id="Path_217" data-name="Path 217" d="M15.466,20.473C15.573,25.658,12.259,28.5,8.3,28.5S1.1,25.61,1,20.473,6.664,6.3,8.3,3.025C10.095,6.4,15.36,15.289,15.466,20.473Z" transform="translate(523.562 243)" fill="#fff" stroke="#9bd2e6" stroke-miterlimit="10" stroke-width="2"/>
      <path id="Path_218" data-name="Path 218" d="M1,20.473C.895,25.658,4.208,28.5,8.167,28.5s7.2-2.892,7.3-8.029S9.8,6.3,8.167,3.025C6.372,6.4,1.108,15.289,1,20.473Z" transform="translate(754.561 196)" fill="#fff" stroke="#9bd2e6" stroke-miterlimit="10" stroke-width="2"/>
      <path id="Path_219" data-name="Path 219" d="M1,20.473C.895,25.658,4.208,28.5,8.167,28.5s7.2-2.892,7.3-8.029S9.8,6.3,8.167,3.025C6.372,6.4,1.108,15.289,1,20.473Z" transform="translate(721.562 159)" fill="#fff" stroke="#9bd2e6" stroke-miterlimit="10" stroke-width="2"/>
    </g>
    <g id="_404_doll" data-name="404 doll" transform="translate(608.288 289.705)">
      <path id="Path_201" data-name="Path 201" d="M74.588,5.8V67.246a5.213,5.213,0,0,1-5.23,5.3H23.33a5.213,5.213,0,0,1-5.23-5.3V14.8h8.892a5.213,5.213,0,0,0,5.23-5.3V.5H69.358A5.213,5.213,0,0,1,74.588,5.8Z" transform="translate(1.075)" fill="#fff" stroke="#9bd2e6" stroke-miterlimit="10" stroke-width="1"/>
      <path id="Path_202" data-name="Path 202" d="M32.4,8.8v.212a5.246,5.246,0,0,1-5.3,5.3H18.1V14.1h9.005A5.246,5.246,0,0,0,32.4,8.8Z" transform="translate(0.905 0.494)" fill="none" stroke="#f9cad3" stroke-miterlimit="10" stroke-width="1"/>
      <path id="Path_203" data-name="Path 203" d="M32.4.6V9.5a5.246,5.246,0,0,1-5.3,5.3H18.1v-.742L31.449.6Z" transform="translate(0.905 0.006)" fill="#fff" stroke="#9bd2e6" stroke-miterlimit="10" stroke-width="1"/>
      <path id="Path_204" data-name="Path 204" d="M33.278,68.5V94.669A1.4,1.4,0,0,1,31.9,96.046h-.424A1.4,1.4,0,0,1,30.1,94.669V68.5Z" transform="translate(1.54 4.292)" fill="#9bd2e6"/>
      <path id="Path_205" data-name="Path 205" d="M60.278,68.5V94.669A1.4,1.4,0,0,1,58.9,96.046h-.424A1.4,1.4,0,0,1,57.1,94.669V68.5Z" transform="translate(2.922 4.292)" fill="#9bd2e6"/>
      <path id="Path_206" data-name="Path 206" d="M19.175,38.75v3.92l-.318.318L.422,24.447a1.343,1.343,0,0,1,0-1.907l.318-.318a1.343,1.343,0,0,1,1.907,0Z" transform="translate(0 1.051)" fill="#9bd2e6"/>
      <path id="Path_207" data-name="Path 207" d="M91.064,24.047,72.524,42.482l-.424-.318V38.456L88.734,21.822a1.343,1.343,0,0,1,1.907,0l.424.212A1.474,1.474,0,0,1,91.064,24.047Z" transform="translate(3.563 1.032)" fill="#9bd2e6"/>
      <path id="Path_208" data-name="Path 208" d="M39.1,39.343a10.6,10.6,0,0,1,13.773,0" transform="translate(1.959 1.861)" fill="none" stroke="#9bd2e6" stroke-miterlimit="10" stroke-width="1"/>
      <circle id="Ellipse_32" data-name="Ellipse 32" cx="1.589" cy="1.589" r="1.589" transform="translate(34.793 25.624)" fill="#9bd2e6"/>
      <circle id="Ellipse_33" data-name="Ellipse 33" cx="1.589" cy="1.589" r="1.589" transform="translate(55.817 25.624)" fill="#9bd2e6"/>
    </g>
  </g>
</svg>
